#Comment line ignore any data following # character 
#Hierarchical Translation and Rotation (.htr) file 
[Header]	
#Header keywords are followed by a single value 
FileType HTR		#Single word string
DataType HTRS		#Translation followed by rotation and scale data
FileVersion 1		#integer
NumSegments 84		#integer
NumFrames 2		#integer
DataFrameRate 30		#integer, data frame rate in this file
EulerRotationOrder ZYX
CalibrationUnits mm
RotationUnits Degrees
GlobalAxisofGravity Y
BoneLengthAxis Y
ScaleFactor 1.00
[SegmentNames&Hierarchy]
#CHILD	PARENT
MASTER GLOBAL
root MASTER
chest root
L_mid_tent01 root
R_mid_tent01 root
spine01 root
Bip01_Neck chest
L_humerus chest
R_humerus chest
weapon_bone chest
Bip01_Head Bip01_Neck
eye_left_bone Bip01_Head
eye_right_bone Bip01_Head
L_forearm L_humerus
L_front_hand L_forearm
L_weapon_bone L_forearm
L_front_hand01_01 L_front_hand
L_front_hand02_01 L_front_hand
L_front_hand03_01 L_front_hand
L_front_hand01_02 L_front_hand01_01
L_front_hand02_02 L_front_hand02_01
L_front_hand03_02 L_front_hand03_01
R_forearm R_humerus
R_front_hand R_forearm
R_weapon_bone R_forearm
R_front_hand01_01 R_front_hand
R_front_hand02_01 R_front_hand
R_front_hand03_01 R_front_hand
R_front_hand01_02 R_front_hand01_01
R_front_hand02_02 R_front_hand02_01
R_front_hand03_02 R_front_hand03_01
null_rope01_connect L_mid_tent01
Rope1_Seg01 null_rope01_connect
Rope1_Seg02 Rope1_Seg01
Rope1_Seg03 Rope1_Seg02
Rope1_Seg04 Rope1_Seg03
Rope1_Seg05 Rope1_Seg04
Rope1_Seg06 Rope1_Seg05
Rope1_Seg07 Rope1_Seg06
Rope1_Seg09 Rope1_Seg07
L_mid_hand01 Rope1_Seg09
L_mid_hand02 Rope1_Seg09
L_mid_hand03 Rope1_Seg09
null_rope02_connect R_mid_tent01
Rope2_Seg01 null_rope02_connect
Rope2_Seg02 Rope2_Seg01
Rope2_Seg03 Rope2_Seg02
Rope2_Seg04 Rope2_Seg03
Rope2_Seg05 Rope2_Seg04
Rope2_Seg06 Rope2_Seg05
Rope2_Seg07 Rope2_Seg06
Rope2_Seg09 Rope2_Seg07
R_mid_hand01 Rope2_Seg09
R_mid_hand02 Rope2_Seg09
R_mid_hand03 Rope2_Seg09
spine02 spine01
spine03 spine02
pelvis spine03
null_rope03_connect pelvis
null_rope04_connect pelvis
Rope3_Seg01 null_rope03_connect
Rope3_Seg02 Rope3_Seg01
Rope3_Seg03 Rope3_Seg02
Rope3_Seg04 Rope3_Seg03
Rope3_Seg05 Rope3_Seg04
Rope3_Seg06 Rope3_Seg05
Rope3_Seg07 Rope3_Seg06
Rope3_Seg08 Rope3_Seg07
Rope3_Seg09 Rope3_Seg08
R_rear_hand01 Rope3_Seg09
R_rear_hand02 Rope3_Seg09
R_rear_hand03 Rope3_Seg09
Rope4_Seg01 null_rope04_connect
Rope4_Seg02 Rope4_Seg01
Rope4_Seg03 Rope4_Seg02
Rope4_Seg04 Rope4_Seg03
Rope4_Seg05 Rope4_Seg04
Rope4_Seg06 Rope4_Seg05
Rope4_Seg07 Rope4_Seg06
Rope4_Seg08 Rope4_Seg07
Rope4_Seg09 Rope4_Seg08
L_rear_hand01 Rope4_Seg09
L_rear_hand02 Rope4_Seg09
L_rear_hand03 Rope4_Seg09
[BasePosition]
#SegmentName Tx, Ty, Tz, Rx, Ry, Rz, BoneLength
MASTER 0.000000 0.000000 0.000000 -90.000000 0.000000 0.000000 10.000000 
root 0.000000 0.000000 0.000000 0.000000 0.000000 0.000000 10.000000 
chest 0.000000 0.000000 0.000000 0.000000 0.000000 0.000000 10.000000 
L_mid_tent01 0.000000 0.000000 0.000000 0.000000 0.000000 0.000000 10.000000 
R_mid_tent01 0.000000 0.000000 0.000000 0.000000 0.000000 0.000000 10.000000 
spine01 0.000000 0.000000 0.000000 0.000000 0.000000 0.000000 10.000000 
Bip01_Neck 0.000000 0.000000 0.000000 0.000000 0.000000 0.000000 10.000000 
L_humerus 0.000000 0.000000 0.000000 0.000000 0.000000 0.000000 10.000000 
R_humerus 0.000000 0.000000 0.000000 0.000000 0.000000 0.000000 10.000000 
weapon_bone 0.000000 0.000000 0.000000 0.000000 0.000000 0.000000 10.000000 
Bip01_Head 0.000000 0.000000 0.000000 0.000000 0.000000 0.000000 10.000000 
eye_left_bone 0.000000 0.000000 0.000000 0.000000 0.000000 0.000000 10.000000 
eye_right_bone 0.000000 0.000000 0.000000 0.000000 0.000000 0.000000 10.000000 
L_forearm 0.000000 0.000000 0.000000 0.000000 0.000000 0.000000 10.000000 
L_front_hand 0.000000 0.000000 0.000000 0.000000 0.000000 0.000000 10.000000 
L_weapon_bone 0.000000 0.000000 0.000000 0.000000 0.000000 0.000000 10.000000 
L_front_hand01_01 0.000000 0.000000 0.000000 0.000000 0.000000 0.000000 10.000000 
L_front_hand02_01 0.000000 0.000000 0.000000 0.000000 0.000000 0.000000 10.000000 
L_front_hand03_01 0.000000 0.000000 0.000000 0.000000 0.000000 0.000000 10.000000 
L_front_hand01_02 0.000000 0.000000 0.000000 0.000000 0.000000 0.000000 10.000000 
L_front_hand02_02 0.000000 0.000000 0.000000 0.000000 0.000000 0.000000 10.000000 
L_front_hand03_02 0.000000 0.000000 0.000000 0.000000 0.000000 0.000000 10.000000 
R_forearm 0.000000 0.000000 0.000000 0.000000 0.000000 0.000000 10.000000 
R_front_hand 0.000000 0.000000 0.000000 0.000000 0.000000 0.000000 10.000000 
R_weapon_bone 0.000000 0.000000 0.000000 0.000000 0.000000 0.000000 10.000000 
R_front_hand01_01 0.000000 0.000000 0.000000 0.000000 0.000000 0.000000 10.000000 
R_front_hand02_01 0.000000 0.000000 0.000000 0.000000 0.000000 0.000000 10.000000 
R_front_hand03_01 0.000000 0.000000 0.000000 0.000000 0.000000 0.000000 10.000000 
R_front_hand01_02 0.000000 0.000000 0.000000 0.000000 0.000000 0.000000 10.000000 
R_front_hand02_02 0.000000 0.000000 0.000000 0.000000 0.000000 0.000000 10.000000 
R_front_hand03_02 0.000000 0.000000 0.000000 0.000000 0.000000 0.000000 10.000000 
null_rope01_connect 0.000000 0.000000 0.000000 0.000000 0.000000 0.000000 10.000000 
Rope1_Seg01 0.000000 0.000000 0.000000 0.000000 0.000000 0.000000 10.000000 
Rope1_Seg02 0.000000 0.000000 0.000000 0.000000 0.000000 0.000000 10.000000 
Rope1_Seg03 0.000000 0.000000 0.000000 0.000000 0.000000 0.000000 10.000000 
Rope1_Seg04 0.000000 0.000000 0.000000 0.000000 0.000000 0.000000 10.000000 
Rope1_Seg05 0.000000 0.000000 0.000000 0.000000 0.000000 0.000000 10.000000 
Rope1_Seg06 0.000000 0.000000 0.000000 0.000000 0.000000 0.000000 10.000000 
Rope1_Seg07 0.000000 0.000000 0.000000 0.000000 0.000000 0.000000 10.000000 
Rope1_Seg09 0.000000 0.000000 0.000000 0.000000 0.000000 0.000000 10.000000 
L_mid_hand01 0.000000 0.000000 0.000000 0.000000 0.000000 0.000000 10.000000 
L_mid_hand02 0.000000 0.000000 0.000000 0.000000 0.000000 0.000000 10.000000 
L_mid_hand03 0.000000 0.000000 0.000000 0.000000 0.000000 0.000000 10.000000 
null_rope02_connect 0.000000 0.000000 0.000000 0.000000 0.000000 0.000000 10.000000 
Rope2_Seg01 0.000000 0.000000 0.000000 0.000000 0.000000 0.000000 10.000000 
Rope2_Seg02 0.000000 0.000000 0.000000 0.000000 0.000000 0.000000 10.000000 
Rope2_Seg03 0.000000 0.000000 0.000000 0.000000 0.000000 0.000000 10.000000 
Rope2_Seg04 0.000000 0.000000 0.000000 0.000000 0.000000 0.000000 10.000000 
Rope2_Seg05 0.000000 0.000000 0.000000 0.000000 0.000000 0.000000 10.000000 
Rope2_Seg06 0.000000 0.000000 0.000000 0.000000 0.000000 0.000000 10.000000 
Rope2_Seg07 0.000000 0.000000 0.000000 0.000000 0.000000 0.000000 10.000000 
Rope2_Seg09 0.000000 0.000000 0.000000 0.000000 0.000000 0.000000 10.000000 
R_mid_hand01 0.000000 0.000000 0.000000 0.000000 0.000000 0.000000 10.000000 
R_mid_hand02 0.000000 0.000000 0.000000 0.000000 0.000000 0.000000 10.000000 
R_mid_hand03 0.000000 0.000000 0.000000 0.000000 0.000000 0.000000 10.000000 
spine02 0.000000 0.000000 0.000000 0.000000 0.000000 0.000000 10.000000 
spine03 0.000000 0.000000 0.000000 0.000000 0.000000 0.000000 10.000000 
pelvis 0.000000 0.000000 0.000000 0.000000 0.000000 0.000000 10.000000 
null_rope03_connect 0.000000 0.000000 0.000000 0.000000 0.000000 0.000000 10.000000 
null_rope04_connect 0.000000 0.000000 0.000000 0.000000 0.000000 0.000000 10.000000 
Rope3_Seg01 0.000000 0.000000 0.000000 0.000000 0.000000 0.000000 10.000000 
Rope3_Seg02 0.000000 0.000000 0.000000 0.000000 0.000000 0.000000 10.000000 
Rope3_Seg03 0.000000 0.000000 0.000000 0.000000 0.000000 0.000000 10.000000 
Rope3_Seg04 0.000000 0.000000 0.000000 0.000000 0.000000 0.000000 10.000000 
Rope3_Seg05 0.000000 0.000000 0.000000 0.000000 0.000000 0.000000 10.000000 
Rope3_Seg06 0.000000 0.000000 0.000000 0.000000 0.000000 0.000000 10.000000 
Rope3_Seg07 0.000000 0.000000 0.000000 0.000000 0.000000 0.000000 10.000000 
Rope3_Seg08 0.000000 0.000000 0.000000 0.000000 0.000000 0.000000 10.000000 
Rope3_Seg09 0.000000 0.000000 0.000000 0.000000 0.000000 0.000000 10.000000 
R_rear_hand01 0.000000 0.000000 0.000000 0.000000 0.000000 0.000000 10.000000 
R_rear_hand02 0.000000 0.000000 0.000000 0.000000 0.000000 0.000000 10.000000 
R_rear_hand03 0.000000 0.000000 0.000000 0.000000 0.000000 0.000000 10.000000 
Rope4_Seg01 0.000000 0.000000 0.000000 0.000000 0.000000 0.000000 10.000000 
Rope4_Seg02 0.000000 0.000000 0.000000 0.000000 0.000000 0.000000 10.000000 
Rope4_Seg03 0.000000 0.000000 0.000000 0.000000 0.000000 0.000000 10.000000 
Rope4_Seg04 0.000000 0.000000 0.000000 0.000000 0.000000 0.000000 10.000000 
Rope4_Seg05 0.000000 0.000000 0.000000 0.000000 0.000000 0.000000 10.000000 
Rope4_Seg06 0.000000 0.000000 0.000000 0.000000 0.000000 0.000000 10.000000 
Rope4_Seg07 0.000000 0.000000 0.000000 0.000000 0.000000 0.000000 10.000000 
Rope4_Seg08 0.000000 0.000000 0.000000 0.000000 0.000000 0.000000 10.000000 
Rope4_Seg09 0.000000 0.000000 0.000000 0.000000 0.000000 0.000000 10.000000 
L_rear_hand01 0.000000 0.000000 0.000000 0.000000 0.000000 0.000000 10.000000 
L_rear_hand02 0.000000 0.000000 0.000000 0.000000 0.000000 0.000000 10.000000 
L_rear_hand03 0.000000 0.000000 0.000000 0.000000 0.000000 0.000000 10.000000 
#Beginning of Data. Separated by tabs
#Fr	Tx	Ty	Tz	Rx	Ry	Rz	SF
[MASTER]
23 2930.980225 -0.000443 0.000000 0.002347 0.000000 89.997704 2930.980225
24 2970.722900 -0.000449 0.000000 0.002347 0.000000 89.997704 2970.722900
[root]
23 -62.822105 16.502380 1316.840332 -95.050919 -27.099190 -156.520493 1318.441284
24 -62.822109 16.502380 1358.896484 -92.669708 -27.313438 -155.733490 1360.447998
[chest]
23 -84.512650 -34.090519 0.000000 -10.943866 2.433860 -177.093796 91.129311
24 -84.512650 -34.090519 0.000000 -8.576306 2.397798 -178.042786 91.129311
[L_mid_tent01]
23 27.322435 22.164440 -250.065689 -6.744036 32.845634 65.705795 252.528473
24 27.299500 22.177580 -249.918350 3.862628 36.229202 81.347610 252.381256
[R_mid_tent01]
23 23.228794 24.509907 226.238495 -175.776611 -44.403133 61.112537 228.744751
24 23.228794 24.509907 226.238495 160.432037 -47.061241 87.899765 228.744751
[spine01]
23 -0.361383 -0.195265 0.000000 9.556249 0.416428 12.128875 0.410763
24 -0.361383 -0.195265 0.000000 0.829142 1.400018 15.725574 0.410763
[Bip01_Neck]
23 165.484543 71.581718 0.000119 175.896118 1.177290 24.871183 180.302734
24 165.484543 71.581718 0.000119 175.896118 1.177290 24.871183 180.302734
[L_humerus]
23 -13.983130 -135.272980 -120.471481 170.940796 81.564224 -99.189163 181.680161
24 -13.983130 -135.272980 -120.471481 170.940796 81.564224 -99.189163 181.680161
[R_humerus]
23 -13.983309 -135.273102 125.287651 -159.666046 -68.957870 -101.166077 184.909012
24 -13.983309 -135.273102 125.287651 -159.666046 -68.957870 -101.166077 184.909012
[weapon_bone]
23 235.964890 -300.705902 0.000000 0.000000 -89.951546 -128.212341 382.234833
24 235.964890 -300.705902 0.000000 0.000000 -89.951546 -128.212341 382.234833
[Bip01_Head]
23 261.355713 108.959549 -2.864088 2.248029 5.843377 -62.458344 283.173462
24 261.355713 108.959564 -2.864084 2.248029 5.843377 -62.458344 283.173462
[eye_left_bone]
23 -24.626970 125.451866 -64.772606 0.000000 -90.000000 -99.840431 143.318359
24 -24.626970 125.451866 -64.772606 0.000000 -90.000000 -99.840431 143.318359
[eye_right_bone]
23 -24.626970 125.451866 64.327362 0.000000 -89.960434 80.159386 143.117676
24 -24.626970 125.451866 64.327362 0.000000 -89.960434 80.159386 143.117676
[L_forearm]
23 322.776093 0.000000 -0.000119 0.000471 0.002300 -66.859398 322.776093
24 322.776093 0.000000 -0.000119 0.000471 0.002300 -66.859398 322.776093
[L_front_hand]
23 241.149185 -0.042021 -3.300071 -178.667953 -1.835447 -27.422350 241.171753
24 241.149185 -0.042021 -3.300071 -178.667953 -1.835447 -27.422350 241.171753
[L_weapon_bone]
23 156.183838 0.000000 0.000000 0.001660 0.001660 0.001660 156.183838
24 156.183838 0.000000 0.000000 0.001660 0.001660 0.001660 156.183838
[L_front_hand01_01]
23 86.095154 20.947098 -0.655860 -0.039595 -0.596831 41.566479 88.609184
24 86.095154 20.947098 -0.655860 -0.080858 -0.591944 45.625771 88.609184
[L_front_hand02_01]
23 86.935165 -11.437475 24.513514 124.374413 -36.729134 -22.597244 91.046425
24 86.935165 -11.437475 24.513514 126.232201 -40.040043 -25.588293 91.046425
[L_front_hand03_01]
23 86.637497 -14.123976 -20.424902 -125.481544 35.188984 -25.002670 90.126129
24 86.637497 -14.123976 -20.424902 -127.285873 38.455624 -28.007551 90.126129
[L_front_hand01_02]
23 71.020905 -0.000179 0.000030 0.000387 0.002315 -70.998672 71.020905
24 71.020905 -0.000179 0.000030 0.000299 0.002328 -75.372398 71.020905
[L_front_hand02_02]
23 71.020927 -0.000119 0.000060 0.000387 0.002315 -70.998672 71.020927
24 71.020927 -0.000119 0.000060 0.000299 0.002328 -75.372398 71.020927
[L_front_hand03_02]
23 71.020905 -0.000060 0.000060 0.000387 0.002315 -70.998672 71.020905
24 71.020905 -0.000060 0.000060 0.000299 0.002328 -75.372398 71.020905
[R_forearm]
23 322.776428 -0.000060 0.000030 0.199694 -0.075621 -69.903069 322.776428
24 322.776428 -0.000060 0.000030 0.199694 -0.075621 -69.903069 322.776428
[R_front_hand]
23 238.847015 -0.006795 2.210259 -1.531694 0.790216 -51.443054 238.857239
24 238.847015 -0.006795 2.210259 -1.531694 0.790216 -51.443054 238.857239
[R_weapon_bone]
23 155.664093 0.002503 -0.000030 0.003487 0.001180 -90.988930 155.664078
24 155.664093 0.002503 -0.000030 0.003487 0.001180 -90.988930 155.664078
[R_front_hand01_01]
23 87.624611 14.231146 22.918642 -124.437439 -36.850163 22.807629 91.683487
24 87.624611 14.231146 22.918642 -126.306305 -40.160236 25.811508 91.683487
[R_front_hand02_01]
23 89.356956 14.367283 -19.491137 125.690239 35.556717 25.577541 92.579636
24 89.356956 14.367283 -19.491137 127.524292 38.813595 28.615982 92.579636
[R_front_hand03_01]
23 87.286232 -22.307278 -0.143439 -0.104619 -0.440886 -41.953770 90.091743
24 87.286232 -22.307278 -0.143439 -0.071417 -0.447620 -46.013149 90.091743
[R_front_hand01_02]
23 71.020905 0.000060 0.000119 0.002315 0.000387 70.996666 71.020905
24 71.020905 0.000060 0.000119 0.002328 0.000299 75.370369 71.020905
[R_front_hand02_02]
23 71.020844 -0.000030 -0.000119 0.002315 0.000387 70.996666 71.020836
24 71.020844 -0.000030 -0.000119 0.002328 0.000299 75.370369 71.020836
[R_front_hand03_02]
23 71.020905 0.000000 0.000030 0.002315 0.000387 70.996666 71.020905
24 71.020905 0.000000 0.000030 0.002328 0.000299 75.370369 71.020905
[null_rope01_connect]
23 328.732483 0.000000 -0.000238 -175.750641 -60.486019 -128.243622 328.732483
24 328.732483 0.000000 -0.000238 -172.572495 -61.680523 -143.764145 328.732483
[Rope1_Seg01]
23 0.000000 0.000000 0.000000 -13.958924 63.906616 169.244766 0.000000
24 0.000000 0.000000 0.000000 -10.684362 62.143917 172.725800 0.000000
[Rope1_Seg02]
23 139.999863 -0.000179 0.000000 18.013741 -13.968742 -35.357422 139.999863
24 139.999863 -0.000179 0.000000 15.518928 -8.633324 -36.106720 139.999863
[Rope1_Seg03]
23 139.999924 0.000060 -0.000060 6.636287 -5.372577 -10.828882 139.999924
24 139.999924 0.000060 -0.000060 9.030108 -5.614934 -13.228845 139.999924
[Rope1_Seg04]
23 139.999924 -0.000060 -0.000119 11.626824 -6.058186 -16.441650 139.999924
24 139.999924 -0.000060 -0.000119 13.882595 -7.469298 -16.010441 139.999924
[Rope1_Seg05]
23 139.999832 0.000119 -0.000060 8.685368 -5.754997 -9.134830 139.999832
24 139.999832 0.000119 -0.000060 8.259326 -5.908370 -7.370806 139.999832
[Rope1_Seg06]
23 139.999954 0.000119 -0.000060 5.425073 -4.274739 -4.839789 139.999954
24 139.999954 0.000119 -0.000060 4.804323 -4.036855 -3.749432 139.999954
[Rope1_Seg07]
23 139.999985 0.000060 0.000000 3.601189 -3.123715 -2.938129 139.999985
24 139.999985 0.000060 0.000000 3.075468 -2.833663 -2.227354 139.999985
[Rope1_Seg09]
23 121.602913 0.000119 -0.000089 -89.793175 -1.359789 0.847147 121.602913
24 121.602913 0.000119 -0.000089 -89.793175 -1.359789 0.847147 121.602913
[L_mid_hand01]
23 103.859421 1.038730 8.195221 105.579529 -22.648388 -6.659525 104.187431
24 103.859421 1.038730 8.195221 105.620987 -22.988335 -6.761933 104.187431
[L_mid_hand02]
23 105.572853 -4.139662 -10.864139 -139.393402 20.098043 -21.242613 106.211075
24 105.572853 -4.139662 -10.864139 -139.491974 20.327143 -21.528740 106.211075
[L_mid_hand03]
23 104.641464 17.579376 -3.913581 -17.397032 7.151557 25.563231 106.179977
24 104.641464 17.579376 -3.913581 -17.354424 7.254999 25.905664 106.179977
[null_rope02_connect]
23 328.732849 0.000179 -0.000119 -117.031998 30.059107 15.128111 328.732849
24 328.732849 0.000179 -0.000119 -116.014893 21.093807 33.101036 328.732849
[Rope2_Seg01]
23 -0.000043 0.000134 0.000153 10.270772 67.349915 -57.318909 0.000207
24 -0.000041 0.000134 0.000153 45.227753 66.669441 -20.356432 0.000207
[Rope2_Seg02]
23 139.999741 -0.000060 -0.000119 -3.213785 28.565987 -8.695273 139.999756
24 139.999741 -0.000060 -0.000119 -5.371697 35.018898 -12.345900 139.999756
[Rope2_Seg03]
23 140.000107 0.000030 0.000000 -5.542547 20.975393 -3.276098 140.000107
24 140.000107 0.000030 0.000000 -5.753882 22.874817 -7.071740 140.000107
[Rope2_Seg04]
23 139.999802 0.000000 -0.000060 0.568064 21.923409 -11.702327 139.999802
24 139.999802 0.000000 -0.000060 -7.586452 22.622793 -9.788815 139.999802
[Rope2_Seg05]
23 139.999985 -0.000060 0.000119 34.225288 12.769430 -8.802097 139.999985
24 139.999985 -0.000060 0.000119 -145.134644 9.997946 -2.982084 139.999985
[Rope2_Seg06]
23 139.999893 -0.000030 -0.000119 96.455170 2.721269 -6.076732 139.999893
24 139.999893 -0.000030 -0.000119 -18.049826 -3.234918 3.947738 139.999893
[Rope2_Seg07]
23 139.999893 0.000060 -0.000060 19.487862 -3.759009 -1.191287 139.999893
24 139.999893 0.000060 -0.000060 -2.589884 -2.617406 1.678973 139.999893
[Rope2_Seg09]
23 121.338966 0.000089 -0.000060 33.793236 -1.359788 -0.847141 121.338966
24 121.338966 0.000089 -0.000060 33.793236 -1.359788 -0.847141 121.338966
[R_mid_hand01]
23 104.680779 11.144459 -10.335981 -44.145947 19.560667 21.759449 105.778534
24 104.680779 11.144459 -10.335981 -44.070736 19.764444 21.986286 105.778534
[R_mid_hand02]
23 104.070427 2.443552 8.231699 74.186195 -24.483601 7.232481 104.424065
24 104.070427 2.443552 8.231699 74.148849 -24.768806 7.320621 104.424065
[R_mid_hand03]
23 106.028137 -11.221827 -5.996406 -166.520828 8.347037 -28.494413 106.788818
24 106.028137 -11.221827 -5.996406 -166.566208 8.416404 -28.789036 106.788818
[spine02]
23 129.756927 0.001550 0.000119 -0.245322 -4.052060 -4.355547 129.756927
24 129.756927 0.001550 0.000119 -0.245322 -4.052060 -4.355547 129.756927
[spine03]
23 78.613739 0.087262 -4.899233 0.369659 4.260734 -4.885720 78.766296
24 78.613739 0.087268 -4.899252 0.369659 4.260734 -4.885720 78.766296
[pelvis]
23 169.435242 0.051022 0.000000 -0.010007 -0.191417 -1.897554 169.435257
24 169.435242 0.051022 0.000000 -0.010007 -0.191417 -1.897554 169.435257
[null_rope03_connect]
23 -1.257226 -2.466202 137.391083 76.964706 -66.011627 38.206894 137.418976
24 -1.257226 -2.466202 137.391083 92.258759 -67.991226 20.711096 137.418976
[null_rope04_connect]
23 -1.259640 -2.480268 -137.844437 76.964706 -66.011627 38.206894 137.872513
24 -1.259640 -2.480268 -137.844437 92.258759 -67.991226 20.711096 137.872513
[Rope3_Seg01]
23 0.000000 0.000000 0.000000 -23.661627 -49.859863 -20.522625 0.000000
24 0.000000 0.000000 0.000000 -16.084471 -40.083477 -26.342058 0.000000
[Rope3_Seg02]
23 139.999924 -0.000119 0.000060 -10.365248 -12.713494 18.407421 139.999924
24 139.999924 -0.000119 0.000060 -17.846910 -17.376377 23.459229 139.999924
[Rope3_Seg03]
23 139.999924 -0.000119 0.000119 -30.862682 -32.092121 33.751232 139.999924
24 139.999924 -0.000119 0.000119 -34.620106 -41.295319 32.069786 139.999924
[Rope3_Seg04]
23 139.999924 0.000119 0.000000 -18.569168 -31.306541 19.843706 139.999924
24 139.999924 0.000119 0.000000 -13.153727 -31.953373 17.192663 139.999924
[Rope3_Seg05]
23 139.999924 -0.000238 0.000060 -8.909494 -22.304491 13.145120 139.999924
24 139.999924 -0.000238 0.000060 -5.116617 -21.001011 11.619648 139.999924
[Rope3_Seg06]
23 139.999893 -0.000119 -0.000060 -1.531944 -8.415506 3.110254 139.999893
24 139.999893 -0.000119 -0.000060 -0.385270 -7.097933 2.642149 139.999893
[Rope3_Seg07]
23 139.999771 0.000060 -0.000119 -0.257049 -4.304319 1.352583 139.999771
24 139.999771 0.000060 -0.000119 0.211462 -3.904109 1.394937 139.999771
[Rope3_Seg08]
23 139.999985 -0.000060 0.000000 0.169461 -2.373574 0.735223 139.999985
24 139.999985 -0.000060 0.000000 0.412060 -2.177481 0.790244 139.999985
[Rope3_Seg09]
23 90.185997 -0.000179 -0.000060 89.793228 -1.359877 -0.847183 90.185997
24 90.185997 -0.000179 -0.000060 89.793228 -1.359877 -0.847183 90.185997
[R_rear_hand01]
23 103.366196 -6.073594 -10.757982 -159.959000 14.681531 -24.191771 104.101845
24 103.366196 -6.073594 -10.757982 -160.090088 14.865479 -24.717995 104.101845
[R_rear_hand02]
23 100.509819 12.039542 -7.992327 -35.841637 15.831045 23.713284 101.543350
24 100.509819 12.039542 -7.992327 -35.711582 16.148796 24.170401 101.543350
[R_rear_hand03]
23 101.539970 5.215704 5.435467 83.722893 -24.961674 6.520506 101.819031
24 101.539970 5.215704 5.435467 83.699936 -25.497597 6.583542 101.819031
[Rope4_Seg01]
23 0.000000 0.000000 0.000000 -105.214233 -31.852163 -98.473808 0.000000
24 0.000000 0.000000 0.000000 -107.322098 -27.119427 -91.174477 0.000000
[Rope4_Seg02]
23 139.999985 0.000060 0.000119 -7.949032 28.083248 -23.946293 139.999985
24 139.999985 0.000060 0.000119 -15.973906 33.595284 -34.695827 139.999985
[Rope4_Seg03]
23 139.999924 0.000000 -0.000238 0.063565 44.465405 -39.912670 139.999924
24 139.999924 0.000000 -0.000238 -0.618759 40.581882 -36.029972 139.999924
[Rope4_Seg04]
23 139.999985 0.000000 0.000119 9.167088 11.271442 -16.866455 139.999985
24 139.999985 0.000000 0.000119 7.936302 12.376453 -15.593508 139.999985
[Rope4_Seg05]
23 139.999802 -0.000060 -0.000119 7.463787 4.163211 -16.750557 139.999802
24 139.999802 -0.000060 -0.000119 9.337436 10.145520 -20.121983 139.999802
[Rope4_Seg06]
23 139.999924 0.000000 0.000060 4.068897 1.339010 -11.427207 139.999924
24 139.999924 0.000000 0.000060 5.076947 3.575360 -11.957448 139.999924
[Rope4_Seg07]
23 139.999802 0.000000 0.000000 1.955832 0.491620 -6.349400 139.999802
24 139.999802 0.000000 0.000000 2.565032 1.352581 -6.551548 139.999802
[Rope4_Seg08]
23 139.999924 0.000000 0.000119 -0.523010 0.157964 -3.699119 139.999924
24 139.999924 0.000000 0.000119 -0.181038 0.594497 -3.738937 139.999924
[Rope4_Seg09]
23 90.185791 0.000060 0.000060 -135.617828 2.228885 0.850567 90.185791
24 90.185791 0.000060 0.000060 -135.617828 2.228885 0.850567 90.185791
[L_rear_hand01]
23 101.696655 -8.392275 -7.654577 -36.362705 -14.425787 158.284409 102.329041
24 101.696655 -8.392275 -7.654577 -36.242058 -14.765300 157.809067 102.329041
[L_rear_hand02]
23 102.726799 -1.568258 5.773216 83.841537 22.586632 173.765472 102.900848
24 102.726799 -1.568258 5.773216 83.814362 23.151863 173.698151 102.900848
[L_rear_hand03]
23 104.552910 9.721220 -10.420293 -159.389603 -13.851099 -158.113632 105.519653
24 104.552910 9.721220 -10.420293 -159.518845 -14.052428 -157.569275 105.519653
